<?xml version="1.0" encoding="UTF-8" standalone="no"?>
<!-- Created with Inkscape (http://www.inkscape.org/) -->
<svg
   xmlns:svg="http://www.w3.org/2000/svg"
   xmlns="http://www.w3.org/2000/svg"
   version="1.0"
   width="956.69287"
   height="512.36218"
   id="svg2347">
  <defs
     id="defs2349" />
  <g
     transform="translate(16.881069,-191.51353)"
     id="layer1">
    <g
       transform="translate(35.433049,35.493394)"
       id="g2370">
      <path
         d="M 460.54275,193.01088 C 457.64496,193.45671 454.85863,204.12835 449.25809,209.68709 C 445.16224,213.69935 440.04934,213.44857 437.33267,218.40833 C 436.30168,220.2612 436.63606,223.42371 435.46575,226.46082 C 433.18098,232.53494 425.12848,233.07829 425.12848,239.69588 C 425.10062,246.84277 431.84359,248.20813 437.68097,253.27924 C 442.23659,257.36116 442.68242,260.17536 448.19936,262.15362 C 452.90823,263.75583 459.9158,258.51753 466.22688,260.39827 C 471.40944,261.94475 476.36909,263.05922 477.5394,268.3811 C 478.57038,273.28502 477.46974,280.8918 471.18653,280.01407 C 469.06894,279.77722 459.88794,276.68437 448.60339,277.88255 C 434.99216,279.42891 419.45829,283.87307 417.93979,299.04471 C 417.10386,307.5291 427.59438,317.53199 437.72277,315.498 C 444.73034,314.1187 441.41459,305.85723 445.2319,301.84497 C 450.23335,296.7042 478.57038,319.7889 504.91511,319.7889 C 516.00471,319.7889 524.25226,316.98863 532.44407,308.40672 C 533.21023,307.75201 534.14369,306.34486 535.32793,306.26126 C 536.4424,306.34486 538.39291,307.4455 539.03368,307.9192 C 560.25168,324.97146 576.287,359.17374 654.26244,359.57777 C 665.22665,359.6335 677.7233,364.8718 687.92135,374.17808 C 697.01865,382.59281 702.34054,395.67461 707.50917,408.95146 C 715.31088,428.87377 729.29828,448.25271 750.50224,469.8189 C 751.65861,470.97528 769.11502,484.54471 770.50813,485.56165 C 770.73105,485.70097 772.01281,488.76595 771.56698,490.4795 C 771.05149,503.40816 769.17075,541.00968 797.20116,542.7093 C 804.05559,543.05761 802.25834,538.23728 802.25834,534.92152 C 802.2444,528.3736 801.04635,521.86758 804.50143,515.1664 C 809.22423,505.94372 794.48449,501.6945 794.91639,481.75838 C 795.2229,466.89325 782.74018,469.4288 776.40124,458.10235 C 772.75111,451.5406 769.50501,448.05766 769.74186,440.03303 C 771.16295,394.86665 760.12907,365.19213 754.62606,357.90591 C 750.33516,352.4029 746.78256,350.21565 750.71122,347.66617 C 774.10254,332.216 779.41049,317.8385 779.41049,317.8385 C 791.85141,288.59598 803.03854,261.88902 818.46085,250.13067 C 821.56762,247.70657 829.53652,241.75773 834.42662,239.41723 C 848.81794,232.63246 856.39674,228.52268 860.57629,224.45458 C 867.19377,218.00429 872.41824,204.56025 866.0793,196.41023 C 858.19399,186.3515 844.5549,194.33433 838.5364,197.90087 C 795.52941,223.42371 789.19047,268.45076 774.29759,294.30797 C 762.41384,314.96857 743.09063,330.14009 725.81545,331.38006 C 712.85892,332.34139 698.89939,329.72224 684.9957,323.62015 C 651.18352,308.79682 632.68231,289.65472 628.32163,286.26941 C 619.23827,279.26173 548.71624,210.03539 491.58252,207.20726 C 491.58252,207.20726 484.49124,193.01088 482.70803,192.77404 C 478.52859,192.24461 474.2515,201.25843 471.18653,202.30323 C 468.30267,203.26456 463.45448,192.53719 460.54275,193.01088"
         style="fill:#000000;fill-rule:nonzero;stroke:none"
         id="path20" />
      <path
         d="M 209.02069,606.18196 C 203.64308,606.05657 199.0735,601.64016 199.0735,596.17895 L 199.08743,417.96528 L 140.35157,417.96528 L 140.35157,614.41557 C 140.35157,624.04229 148.15331,631.89973 157.72435,631.89973 L 260.3867,631.89973 C 270.02741,631.89973 277.73161,624.04229 277.73161,614.41557 L 277.73161,417.96528 L 219.0515,417.96528 L 218.99577,596.17895 C 218.99577,601.64016 214.42619,606.05657 209.02069,606.18196"
         style="fill:#000000;fill-rule:nonzero;stroke:none"
         id="path24" />
      <path
         d="M 405.67988,417.96528 L 316.78202,417.96528 C 306.26364,417.96528 297.69568,426.51933 297.69568,437.14917 L 297.69568,631.89973 L 356.48731,631.89973 L 356.48731,453.25416 C 356.5291,447.77902 360.95933,443.44632 366.42054,443.44632 C 371.90961,443.44632 376.31197,447.68149 376.43736,453.1009 L 376.43736,631.89973 L 434.99216,631.89973 L 434.99216,453.1009 C 435.06183,447.68149 439.46419,443.44632 444.93933,443.44632 C 450.37267,443.44632 454.85863,447.77902 454.90042,453.25416 L 454.90042,631.89973 L 513.69207,631.89973 L 513.69207,437.14917 C 513.69207,426.51933 505.11016,417.96528 494.59177,417.96528 L 405.67988,417.96528"
         style="fill:#000000;fill-rule:nonzero;stroke:none"
         id="path28" />
      <path
         d="M 61.749191,453.63033 C 61.790991,447.68149 56.942761,443.44632 51.801981,443.44632 L 41.826921,443.44632 L 41.826921,551.65345 L 51.801981,551.65345 C 56.984561,551.65345 61.790991,547.52963 61.749191,541.60877 L 61.749191,453.63033 z M 101.16184,578.1375 L 41.826921,578.1375 L 41.826921,631.89973 L -16.881069,631.89973 L -16.881069,417.96528 L 101.53799,417.96528 C 112.13998,417.96528 120.41538,426.57506 120.41538,437.23277 L 120.41538,558.87001 C 120.41538,569.54165 111.81955,578.1375 101.16184,578.1375"
         style="fill:#000000;fill-rule:nonzero;stroke:none"
         id="path32" />
      <path
         d="M 715.15763,584.05847 C 703.35759,584.05847 693.45211,594.25642 693.45211,606.61385 C 693.45211,619.01298 703.35759,629.12733 715.5338,629.12733 C 727.61259,629.12733 737.39257,619.01298 737.39257,606.61385 C 737.39257,594.22855 727.61259,584.05847 715.5338,584.05847 L 715.15763,584.05847 z M 741.59999,606.54419 C 741.59999,621.07484 729.9531,632.88892 715.5338,632.88892 C 700.96136,632.88892 689.25874,621.15843 689.25874,606.54419 C 689.25874,592.20849 700.96136,580.22722 715.1019,580.22722 C 729.9531,580.22722 741.59999,591.84625 741.59999,606.54419"
         style="fill:#000000;fill-rule:nonzero;stroke:none"
         id="path36" />
      <path
         d="M 712.81713,604.87233 C 716.89916,604.87233 719.04461,603.42349 719.04461,600.5257 C 719.04461,597.94834 716.96882,596.62478 712.99825,596.62478 L 711.82805,596.62478 L 711.82805,604.87233 L 712.81713,604.87233 z M 727.84944,621.78538 L 720.84175,621.78538 L 711.82805,609.79018 L 711.82805,621.78538 L 706.10213,621.78538 L 706.10213,591.45615 L 712.12063,591.45615 C 720.29851,591.45615 724.64514,594.54899 724.64514,600.45603 C 724.64514,604.39863 722.08172,607.89551 718.50125,608.94043 L 718.08329,609.09368 L 727.84944,621.78538"
         style="fill:#000000;fill-rule:nonzero;stroke:none"
         id="path40" />
      <path
         d="M 612.25845,551.69525 L 612.25845,453.1845 C 612.11912,447.73722 607.7307,443.55777 602.25555,443.55777 C 596.83614,443.55777 592.35019,447.90441 592.30839,453.33775 L 592.30839,551.69525 L 612.25845,551.69525 z M 612.25845,631.89973 L 612.25845,578.19323 L 592.30839,578.19323 L 592.30839,631.89973 L 533.6282,631.89973 L 533.6282,437.14917 C 533.6282,426.51933 542.19618,417.96528 552.71457,417.96528 L 651.85227,417.96528 C 662.39852,417.96528 670.9665,426.51933 670.9665,437.14917 L 670.9665,631.89973 L 612.25845,631.89973"
         style="fill:#000000;fill-rule:nonzero;stroke:none"
         id="path44" />
    </g>
  </g>
</svg>
